# xmcd
#
# Track frame offsets:
#       150
#       13950
#       25387
#       37572
#       51012
#       65375
#       77647
#       88407
#       100357
#       112237
#       124860
#       138822
#       150582
#       163755
#       178160
#       192365
#       205790
#       219712
#
# Disc length: 3126 seconds
#
# Revision: 4
# Processed by: cddbd v1.5.2PL0 Copyright (c) Steve Scherf et al.
# Submitted via: WhereIsIt 3.95
#
DISCID=fd0c3412
DTITLE=Louis Armstrong  - The Essential Louis Armstrong
DYEAR=1900
DGENRE=
TTITLE0=All of Me
TTITLE1=Something Tells Me
TTITLE2=My Walking Stick
TTITLE3=Save it, Pretty Mama
TTITLE4=The Song is Ended
TTITLE5=So Little Time
TTITLE6=The Old Folks at Home
TTITLE7=Mexican Swing
TTITLE8=Thanks a Million
TTITLE9=Naturally
TTITLE10=Hear Me Talkin to Ya
TTITLE11=It's Wonderful
TTITLE12=I've got a Pocketfull Of Dreams
TTITLE13=Nobody Knows The Troubl I've Seen
TTITLE14=Once in A While
TTITLE15=The Flat Foot Foogie
TTITLE16=Sweet as a Song
TTITLE17=Rockin' Chair
EXTD=
EXTT0=
EXTT1=
EXTT2=
EXTT3=
EXTT4=
EXTT5=
EXTT6=
EXTT7=
EXTT8=
EXTT9=
EXTT10=
EXTT11=
EXTT12=
EXTT13=
EXTT14=
EXTT15=
EXTT16=
EXTT17=
PLAYORDER=
